<svg version="1.2" xmlns="http://www.w3.org/2000/svg" viewBox="0 0 1635 480" width="1635" height="480">
	<title>LLBIG</title>
	<style>
		.s0 { fill: #ffffff } 
	</style>
	<path id="lunaar." class="s0" aria-label="lunaar."  d="m199.6 91v294h-50.4v-294zm149.9 249.1q26.9 0 39.5-16.8 13-16.8 13-43.3v-105h50.4v105q0 22.3-7.1 42-6.7 19.3-20.2 34-13 14.3-32.3 22.7-18.9 8.4-43.3 8.4-24.3 0-43.6-8.4-18.9-8.4-32.4-22.7-13-14.7-20.1-34-6.8-19.7-6.8-42v-105h50.4v105q0 26.5 12.6 43.3 13.1 16.8 39.9 16.8zm256.2-120.2q-26.8 0-39.9 16.8-12.6 16.8-12.6 43.3v105h-50.4v-105q0-22.3 6.8-41.6 7.1-19.7 20.1-34 13.5-14.7 32.4-23.1 19.3-8.4 43.6-8.4 24.4 0 43.3 8.4 19.3 8.4 32.3 23.1 13.5 14.3 20.2 34 7.1 19.3 7.1 41.6v105h-50.4v-105q0-26.5-13-43.3-12.6-16.8-39.5-16.8zm137.8 59.7q0-21.9 7.1-41.2 7.2-19.7 21-34 13.9-14.7 34.1-23.1 20.1-8.4 45.7-8.4 24 0 43.3 7.6 19.3 7.5 32.8 21.4 13.8 13.8 21.4 34 8 19.7 8.8 44.1 0.4 8 0.4 19.7 0 11.4 1.3 25.2 1.2 13.9 4.6 29.4 3.4 15.2 10.5 30.7h-50.4q-7.1-15.5-10.5-32.3-10.9 15.9-27.7 25.2-16.8 9.2-40.3 9.2-22.3 0-41.2-8.4-18.9-8.4-32.3-22.7-13.5-14.7-21-34-7.6-19.7-7.6-42.4zm107.9-59.7q-15.5 0-26.4 4.7-10.9 4.6-18.1 13-6.7 8-10.1 18.9-2.9 10.9-2.9 23.5 0 12.6 2.9 23.5 3.4 10.9 10.1 19.3 7.2 8 18.1 12.6 10.9 4.7 26.4 4.7 26.1 0 40.8-14.3 15.1-14.7 15.1-45.8-1.3-27.7-14.3-43.7-13-16.4-41.6-16.4zm144.5 59.7q0-21.9 7.2-41.2 7.1-19.7 21-34 13.8-14.7 34-23.1 20.1-8.4 45.8-8.4 23.9 0 43.2 7.6 19.3 7.5 32.8 21.4 13.8 13.8 21.4 34 8 19.7 8.8 44.1 0.4 8 0.4 19.7 0 11.4 1.3 25.2 1.3 13.9 4.6 29.4 3.4 15.2 10.5 30.7h-50.4q-7.1-15.5-10.5-32.3-10.9 15.9-27.7 25.2-16.8 9.2-40.3 9.2-22.3 0-41.2-8.4-18.9-8.4-32.3-22.7-13.5-14.7-21-34-7.6-19.7-7.6-42.4zm108-59.7q-15.6 0-26.5 4.7-10.9 4.6-18.1 13-6.7 8-10 18.9-3 10.9-3 23.5 0 12.6 3 23.5 3.3 10.9 10 19.3 7.2 8 18.1 12.6 10.9 4.7 26.5 4.7 26 0 40.7-14.3 15.1-14.7 15.1-45.8-1.2-27.7-14.3-43.7-13-16.4-41.5-16.4zm207 60.1v105h-50.4v-104.6q0-22.2 7.2-42 7.1-19.7 21-34 13.8-14.7 34-23.1 20.1-8.4 46.2-8.4 4.6 0 9.2 0.8 4.6 0.5 9.3 1.3v48.7q-4.2-0.8-8-1.2-3.8-0.9-8-0.9-17.2 0-29 4.6-11.3 4.7-18.5 12.6-7.1 7.6-10 18.5-3 10.5-3 22.7zm92.6 67.4q0-17 10.6-28.6 11.1-12.2 30.2-12.2 19 0 29.6 12.2 10.6 11.6 10.6 28.6 0 16.4-10.6 28.6-10.6 11.6-29.6 11.6-19.1 0-30.2-11.6-10.6-11.7-10.6-28.6z"/>
</svg>