<svg version="1.2" xmlns="http://www.w3.org/2000/svg" viewBox="0 0 495 415" width="495" height="415">
	<title>logo</title>
	<style>
		.s0 { fill: #9282fb } 
		.s1 { fill: #b263a6 } 
	</style>
	<path id="path1" class="s0" d="m209.4 407.5c60.5 0 115.9-27.6 152.5-72.7 5.4-6.7-0.5-16.5-8.9-14.9-95.2 18.2-182.7-54.9-182.7-151.1 0-55.4 29.6-106.3 77.8-133.8 7.5-4.2 5.6-15.5-2.9-17-11.8-2.2-23.8-3.3-35.8-3.3-108.5 0-196.5 87.8-196.5 196.4 0 108.4 87.9 196.4 196.5 196.4z"/>
	<g id="g5">
		<g id="g4">
			<g id="g2">
				<path id="path2" fill-rule="evenodd" class="s1" d="m354.6 34.3l12.9 13c1 1 2.4 1.3 3.7 0.8l17.4-5.8c2.8-1 5.8-0.2 7.8 2.1 2 2.3 2.3 5.4 1 8.1l-8.3 16.3c-0.7 1.2-0.5 2.7 0.3 3.8l10.9 14.7c1.8 2.4 2 5.5 0.4 8.1-1.6 2.6-4.4 3.9-7.4 3.4l-20.3-3.2-11.8 16.8c-1.8 2.4-4.7 3.5-7.6 2.9-3-0.7-5.1-3-5.6-6l-2.9-18c-0.2-1.4-1.1-2.5-2.5-2.9l-17.4-5.5c-2.9-0.9-4.9-3.3-5.1-6.3-0.3-3 1.2-5.7 3.9-7.1l16.3-8.3c1.3-0.7 2-1.9 2-3.3l-0.2-18.3c-0.1-3 1.6-5.6 4.4-6.8 2.9-1.2 5.9-0.6 8.1 1.5z"/>
			</g>
			<g id="g3">
				<path id="path3" fill-rule="evenodd" class="s1" d="m413.4 192.1l12.9 12.9c1 1 2.4 1.3 3.8 0.9l17.3-5.9c2.9-0.9 5.9-0.1 7.8 2.2 2 2.3 2.4 5.3 1 8l-8.3 16.3c-0.6 1.3-0.5 2.7 0.3 3.9l10.9 14.6c1.8 2.5 2 5.6 0.4 8.1-1.5 2.6-4.3 3.9-7.3 3.5l-20.3-3.2-11.9 16.7c-1.8 2.5-4.7 3.6-7.6 2.9-2.9-0.7-5-2.9-5.5-5.9l-2.9-18.1c-0.3-1.4-1.2-2.5-2.5-2.9l-17.5-5.4c-2.9-0.9-4.8-3.4-5.1-6.4-0.2-3 1.3-5.7 4-7l16.2-8.4c1.3-0.6 2-1.8 2-3.2l-0.2-18.3c0-3 1.7-5.6 4.5-6.8 2.8-1.2 5.9-0.6 8 1.5z"/>
			</g>
			<path id="path4" fill-rule="evenodd" class="s1" d="m261 172.9l12.9 12.9c1 1 2.4 1.3 3.7 0.9l17.4-5.9c2.8-0.9 5.8-0.1 7.8 2.2 2 2.2 2.4 5.3 1 8l-8.3 16.3c-0.6 1.3-0.5 2.7 0.3 3.8l10.9 14.7c1.8 2.4 2 5.6 0.4 8.1-1.6 2.6-4.4 3.9-7.3 3.5l-20.3-3.2-11.9 16.7c-1.8 2.5-4.7 3.6-7.6 2.9-3-0.7-5.1-3-5.6-5.9l-2.9-18.1c-0.2-1.4-1.1-2.5-2.5-2.9l-17.4-5.4c-2.9-0.9-4.9-3.4-5.1-6.4-0.3-3 1.2-5.7 3.9-7.1l16.3-8.3c1.3-0.6 2-1.8 2-3.3l-0.2-18.2c-0.1-3.1 1.6-5.6 4.4-6.8 2.9-1.3 5.9-0.6 8.1 1.5z"/>
		</g>
	</g>
</svg>