<?xml version="1.0" encoding="utf-8"?>
<svg viewBox="-21.616 -10.703 134.106 124.764" xmlns="http://www.w3.org/2000/svg">
  <g id="g-1" featurekey="symbolFeature-0" fill="#ffa3ac" transform="matrix(1, 0, 0, 1, -0.8905250430107117, 0.5785590410232544)">
    <path xmlns="http://www.w3.org/2000/svg" d="M65.14746,74.94336c-22.1416,0-40.09082-17.94922-40.09082-40.09082c0-14.93555,8.17285-27.9541,20.28516-34.85254 C19.90332,2.40332,0,23.81934,0,49.88672C0,77.56348,22.43652,100,50.11328,100C76.18066,100,97.5957,80.09668,100,54.6582 C93.10156,66.77051,80.08301,74.94336,65.14746,74.94336z" style="fill: rgb(69, 9, 174);"/>
  </g>
  <g id="SvgjsG1596" featurekey="symbolFeature-0" transform="matrix(0.9643220901489258, 0, 0, 0.9727169871330261, 3.148042917251587, -0.4197390079498291)" fill="#ffa3ac" style="">
    <path xmlns="http://www.w3.org/2000/svg" d="M65.14746,74.94336c-22.1416,0-40.09082-17.94922-40.09082-40.09082c0-14.93555,8.17285-27.9541,20.28516-34.85254 C19.90332,2.40332,0,23.81934,0,49.88672C0,77.56348,22.43652,100,50.11328,100C76.18066,100,97.5957,80.09668,100,54.6582 C93.10156,66.77051,80.08301,74.94336,65.14746,74.94336z" style="fill: rgb(93, 0, 255);"/>
  </g>
</svg>