<svg version="1.2" xmlns="http://www.w3.org/2000/svg" viewBox="0 0 1058 262" width="1058" height="262">
	<title>New Project</title>
	<style>
		.s0 { fill: #ffffff } 
	</style>
	<path id="lunaar." class="s0" aria-label="lunaar."  d="m189.4 119.4q-17.2 0-25.6 10.8-8 10.7-8 27.6v67.2h-32.3v-67.2q0-14.2 4.3-26.6 4.6-12.6 12.9-21.7 8.6-9.4 20.7-14.8 12.4-5.4 28-5.4 15.6 0 27.7 5.4 12.4 5.4 20.7 14.8 8.6 9.1 12.9 21.7 4.6 12.4 4.6 26.6v67.2h-32.3v-67.2q0-16.9-8.3-27.6-8.1-10.8-25.3-10.8zm88.2 38.2q0-14 4.6-26.4 4.5-12.6 13.4-21.7 8.9-9.4 21.8-14.8 12.9-5.4 29.3-5.4 15.4 0 27.7 4.8 12.4 4.9 21 13.7 8.9 8.9 13.7 21.8 5.1 12.6 5.7 28.2 0.2 5.1 0.2 12.7 0 7.2 0.8 16.1 0.9 8.8 3 18.8 2.2 9.7 6.7 19.6h-32.2q-4.6-9.9-6.8-20.7-7 10.2-17.7 16.1-10.8 5.9-25.8 5.9-14.3 0-26.4-5.3-12.1-5.4-20.7-14.5-8.6-9.4-13.5-21.8-4.8-12.6-4.8-27.1zm69.1-38.2q-9.9 0-16.9 3-7 2.9-11.6 8.3-4.3 5.1-6.4 12.1-1.9 7-1.9 15 0 8.1 1.9 15.1 2.1 7 6.4 12.3 4.6 5.1 11.6 8.1 7 2.9 16.9 2.9 16.7 0 26.1-9.1 9.7-9.4 9.7-29.3-0.8-17.7-9.1-27.9-8.4-10.5-26.7-10.5zm163.3 76.8q4 0 6.7-0.2 2.7-0.6 5.4-1.1v30.1q-3.5 0.5-5.9 1.1-2.2 0.2-7.3 0.2-15.6 0-28-5.3-12.3-5.4-21.2-14.5-8.6-9.4-13.5-21.8-4.5-12.6-4.5-26.9v-99.4h32.2v36.8h41.7v30.1h-41.7v32.5q0 17 8.7 27.7 8.8 10.7 27.4 10.7zm65.6-105.5v134.3h-32.3v-134.3zm-36.8-36.1q0-8.5 5.4-14.5 5.6-5.9 15.3-5.9 9.7 0 15.1 6.2 5.3 5.9 5.3 14.2 0 8.6-5.3 14.8-5.4 5.9-15.1 5.9-9.7 0-15.3-5.9-5.4-6.2-5.4-14.8zm86.6 36.1l40.3 100.7 40.4-100.7h32.3l-56.5 134.3h-32.3l-56.5-134.3zm185.1 87.3q-8.9 0-18.3-2.2-9.2-2.1-17-5.9 2.5 11.6 11.6 18.6 9.4 6.9 29.3 6.9 4.3 0 10-0.2 5.6-0.6 11.5-1.1 6-0.5 11.3-1.3 5.4-1.1 9.2-2.5v30.4q-4.9 1.3-10.8 2.4-5.6 1.1-11.5 1.9-6 0.8-11.6 1.3-5.4 0.3-10.2 0.3-18 0-31.8-5.4-13.4-5.3-22.6-14.5-8.8-9.4-13.4-21.7-4.3-12.7-4.3-26.6 0-14.5 4.6-26.9 4.5-12.6 13.1-22 8.9-9.4 21.6-14.8 12.9-5.4 29.3-5.4 12.3 0 22.8 3.2 10.5 3.3 18.1 9.2 7.8 5.9 11.8 13.9 4.3 8.1 4.3 18 0 10-4.3 18.3-4 8.1-11.6 14-7.5 5.6-18 8.9-10.5 3.2-23.1 3.2zm0.2-31.2q11.3 0 17.8-3.2 6.5-3.5 6.5-10 0-6.4-6.5-9.6-6.2-3.5-16.9-3.5-14.3 0-22.6 5.6-8.1 5.4-11.9 14.5 7.3 3 16.2 4.6 9.1 1.6 17.4 1.6zm81.8 59.1q0-8.6 5.4-14.5 5.6-6.2 15.3-6.2 9.7 0 15.1 6.2 5.4 5.9 5.4 14.5 0 8.4-5.4 14.5-5.4 5.9-15.1 5.9-9.7 0-15.3-5.9-5.4-5.9-5.4-14.5z"/>
</svg>